<?xml version="1.0" encoding="UTF-8" standalone="no"?><svg xmlns="http://www.w3.org/2000/svg" xmlns:xlink="http://www.w3.org/1999/xlink" contentStyleType="text/css" height="539px" preserveAspectRatio="none" style="width:1814px;height:539px;background:#FFFFFF;" version="1.1" viewBox="0 0 1814 539" width="1814px" zoomAndPan="magnify"><defs/><g><!--MD5=[24cac15c1f9aefe6275c5d949d6c000c]
class SortStrategy--><g id="elem_SortStrategy"><rect codeLine="1" fill="#F1F1F1" height="64.2969" id="SortStrategy" rx="2.5" ry="2.5" style="stroke:#181818;stroke-width:0.5;" width="332" x="741" y="443.5"/><ellipse cx="858.25" cy="459.5" fill="#B4A7E5" rx="11" ry="11" style="stroke:#181818;stroke-width:1.0;"/><path d="M859.2031,456.2813 L860.9219,456.2813 C861.3125,456.2813 861.5,456.25 861.625,456.1719 C861.8906,456.0156 862.0313,455.7344 862.0313,455.4375 C862.0313,455.1719 861.9219,454.9063 861.6875,454.7344 C861.5156,454.625 861.375,454.5938 860.9219,454.5938 L855.7813,454.5938 C855.3438,454.5938 855.2188,454.6094 855.0625,454.7031 C854.8125,454.8594 854.6563,455.1563 854.6563,455.4375 C854.6563,455.7188 854.7969,455.9688 855.0156,456.1406 C855.1719,456.25 855.3594,456.2813 855.7813,456.2813 L857.5,456.2813 L857.5,462.7969 L855.7813,462.7969 C855.3438,462.7969 855.2188,462.8125 855.0625,462.9219 C854.8125,463.0781 854.6563,463.3594 854.6563,463.6563 C854.6563,463.9063 854.7969,464.1719 855.0156,464.3281 C855.1719,464.4531 855.375,464.5 855.7813,464.5 L860.9219,464.5 C861.6719,464.5 862.0313,464.2188 862.0313,463.6563 C862.0313,463.375 861.9219,463.125 861.6875,462.9531 C861.5156,462.8281 861.375,462.7969 860.9219,462.7969 L859.2031,462.7969 L859.2031,456.2813 Z " fill="#000000"/><text fill="#000000" font-family="sans-serif" font-size="14" font-style="italic" lengthAdjust="spacing" textLength="89" x="878.75" y="464.3467">SortStrategy</text><line style="stroke:#181818;stroke-width:0.5;" x1="742" x2="1072" y1="475.5" y2="475.5"/><line style="stroke:#181818;stroke-width:0.5;" x1="742" x2="1072" y1="483.5" y2="483.5"/><ellipse cx="752" cy="497.1484" fill="#84BE84" rx="3" ry="3" style="stroke:#038048;stroke-width:1.0;"/><text fill="#000000" font-family="sans-serif" font-size="14" lengthAdjust="spacing" textLength="306" x="761" y="500.4951">customeSort(person : List&lt;Person&gt;) : void</text></g><!--MD5=[6b1b16963de3ac98b715edbb6b5898d8]
class NameSortStrategy--><g id="elem_NameSortStrategy"><rect codeLine="5" fill="#F1F1F1" height="64.2969" id="NameSortStrategy" rx="2.5" ry="2.5" style="stroke:#181818;stroke-width:0.5;" width="332" x="7" y="205"/><ellipse cx="101.25" cy="221" fill="#ADD1B2" rx="11" ry="11" style="stroke:#181818;stroke-width:1.0;"/><path d="M103.5938,216.6719 C102.6563,216.2344 102.0625,216.0938 101.1875,216.0938 C98.5625,216.0938 96.5625,218.1719 96.5625,220.8906 L96.5625,222.0156 C96.5625,224.5938 98.6719,226.4844 101.5625,226.4844 C102.7813,226.4844 103.9375,226.1875 104.6875,225.6406 C105.2656,225.2344 105.5938,224.7813 105.5938,224.3906 C105.5938,223.9375 105.2031,223.5469 104.7344,223.5469 C104.5156,223.5469 104.3125,223.625 104.125,223.8125 C103.6719,224.2969 103.6719,224.2969 103.4844,224.3906 C103.0625,224.6563 102.375,224.7813 101.6094,224.7813 C99.5625,224.7813 98.2656,223.6875 98.2656,221.9844 L98.2656,220.8906 C98.2656,219.1094 99.5156,217.7969 101.25,217.7969 C101.8281,217.7969 102.4375,217.9531 102.9063,218.2031 C103.3906,218.4844 103.5625,218.7031 103.6563,219.1094 C103.7188,219.5156 103.75,219.6406 103.8906,219.7656 C104.0313,219.9063 104.2656,220.0156 104.4844,220.0156 C104.75,220.0156 105.0156,219.875 105.1875,219.6563 C105.2969,219.5 105.3281,219.3125 105.3281,218.8906 L105.3281,217.4688 C105.3281,217.0313 105.3125,216.9063 105.2188,216.75 C105.0625,216.4844 104.7813,216.3438 104.4844,216.3438 C104.1875,216.3438 103.9844,216.4375 103.7656,216.75 L103.5938,216.6719 Z " fill="#000000"/><text fill="#000000" font-family="sans-serif" font-size="14" lengthAdjust="spacing" textLength="135" x="121.75" y="225.8467">NameSortStrategy</text><line style="stroke:#181818;stroke-width:0.5;" x1="8" x2="338" y1="237" y2="237"/><line style="stroke:#181818;stroke-width:0.5;" x1="8" x2="338" y1="245" y2="245"/><ellipse cx="18" cy="258.6484" fill="#84BE84" rx="3" ry="3" style="stroke:#038048;stroke-width:1.0;"/><text fill="#000000" font-family="sans-serif" font-size="14" lengthAdjust="spacing" textLength="306" x="27" y="261.9951">customeSort(person : List&lt;Person&gt;) : void</text></g><!--MD5=[0d9a43a39e25c5d2daee3f6472852af0]
class WeightStrategy--><g id="elem_WeightStrategy"><rect codeLine="9" fill="#F1F1F1" height="64.2969" id="WeightStrategy" rx="2.5" ry="2.5" style="stroke:#181818;stroke-width:0.5;" width="332" x="374" y="205"/><ellipse cx="478.25" cy="221" fill="#ADD1B2" rx="11" ry="11" style="stroke:#181818;stroke-width:1.0;"/><path d="M480.5938,216.6719 C479.6563,216.2344 479.0625,216.0938 478.1875,216.0938 C475.5625,216.0938 473.5625,218.1719 473.5625,220.8906 L473.5625,222.0156 C473.5625,224.5938 475.6719,226.4844 478.5625,226.4844 C479.7813,226.4844 480.9375,226.1875 481.6875,225.6406 C482.2656,225.2344 482.5938,224.7813 482.5938,224.3906 C482.5938,223.9375 482.2031,223.5469 481.7344,223.5469 C481.5156,223.5469 481.3125,223.625 481.125,223.8125 C480.6719,224.2969 480.6719,224.2969 480.4844,224.3906 C480.0625,224.6563 479.375,224.7813 478.6094,224.7813 C476.5625,224.7813 475.2656,223.6875 475.2656,221.9844 L475.2656,220.8906 C475.2656,219.1094 476.5156,217.7969 478.25,217.7969 C478.8281,217.7969 479.4375,217.9531 479.9063,218.2031 C480.3906,218.4844 480.5625,218.7031 480.6563,219.1094 C480.7188,219.5156 480.75,219.6406 480.8906,219.7656 C481.0313,219.9063 481.2656,220.0156 481.4844,220.0156 C481.75,220.0156 482.0156,219.875 482.1875,219.6563 C482.2969,219.5 482.3281,219.3125 482.3281,218.8906 L482.3281,217.4688 C482.3281,217.0313 482.3125,216.9063 482.2188,216.75 C482.0625,216.4844 481.7813,216.3438 481.4844,216.3438 C481.1875,216.3438 480.9844,216.4375 480.7656,216.75 L480.5938,216.6719 Z " fill="#000000"/><text fill="#000000" font-family="sans-serif" font-size="14" lengthAdjust="spacing" textLength="115" x="498.75" y="225.8467">WeightStrategy</text><line style="stroke:#181818;stroke-width:0.5;" x1="375" x2="705" y1="237" y2="237"/><line style="stroke:#181818;stroke-width:0.5;" x1="375" x2="705" y1="245" y2="245"/><ellipse cx="385" cy="258.6484" fill="#84BE84" rx="3" ry="3" style="stroke:#038048;stroke-width:1.0;"/><text fill="#000000" font-family="sans-serif" font-size="14" lengthAdjust="spacing" textLength="306" x="394" y="261.9951">customeSort(person : List&lt;Person&gt;) : void</text></g><!--MD5=[8e0a0a9ac050e6d846a9bccac69c9fbb]
class AgeSortStrategy--><g id="elem_AgeSortStrategy"><rect codeLine="13" fill="#F1F1F1" height="64.2969" id="AgeSortStrategy" rx="2.5" ry="2.5" style="stroke:#181818;stroke-width:0.5;" width="332" x="741" y="205"/><ellipse cx="841.75" cy="221" fill="#ADD1B2" rx="11" ry="11" style="stroke:#181818;stroke-width:1.0;"/><path d="M844.0938,216.6719 C843.1563,216.2344 842.5625,216.0938 841.6875,216.0938 C839.0625,216.0938 837.0625,218.1719 837.0625,220.8906 L837.0625,222.0156 C837.0625,224.5938 839.1719,226.4844 842.0625,226.4844 C843.2813,226.4844 844.4375,226.1875 845.1875,225.6406 C845.7656,225.2344 846.0938,224.7813 846.0938,224.3906 C846.0938,223.9375 845.7031,223.5469 845.2344,223.5469 C845.0156,223.5469 844.8125,223.625 844.625,223.8125 C844.1719,224.2969 844.1719,224.2969 843.9844,224.3906 C843.5625,224.6563 842.875,224.7813 842.1094,224.7813 C840.0625,224.7813 838.7656,223.6875 838.7656,221.9844 L838.7656,220.8906 C838.7656,219.1094 840.0156,217.7969 841.75,217.7969 C842.3281,217.7969 842.9375,217.9531 843.4063,218.2031 C843.8906,218.4844 844.0625,218.7031 844.1563,219.1094 C844.2188,219.5156 844.25,219.6406 844.3906,219.7656 C844.5313,219.9063 844.7656,220.0156 844.9844,220.0156 C845.25,220.0156 845.5156,219.875 845.6875,219.6563 C845.7969,219.5 845.8281,219.3125 845.8281,218.8906 L845.8281,217.4688 C845.8281,217.0313 845.8125,216.9063 845.7188,216.75 C845.5625,216.4844 845.2813,216.3438 844.9844,216.3438 C844.6875,216.3438 844.4844,216.4375 844.2656,216.75 L844.0938,216.6719 Z " fill="#000000"/><text fill="#000000" font-family="sans-serif" font-size="14" lengthAdjust="spacing" textLength="122" x="862.25" y="225.8467">AgeSortStrategy</text><line style="stroke:#181818;stroke-width:0.5;" x1="742" x2="1072" y1="237" y2="237"/><line style="stroke:#181818;stroke-width:0.5;" x1="742" x2="1072" y1="245" y2="245"/><ellipse cx="752" cy="258.6484" fill="#84BE84" rx="3" ry="3" style="stroke:#038048;stroke-width:1.0;"/><text fill="#000000" font-family="sans-serif" font-size="14" lengthAdjust="spacing" textLength="306" x="761" y="261.9951">customeSort(person : List&lt;Person&gt;) : void</text></g><!--MD5=[effe0655a44bb956bce8a7ee1b4a92c9]
class HeightStrategy--><g id="elem_HeightStrategy"><rect codeLine="17" fill="#F1F1F1" height="64.2969" id="HeightStrategy" rx="2.5" ry="2.5" style="stroke:#181818;stroke-width:0.5;" width="332" x="1108" y="205"/><ellipse cx="1214.25" cy="221" fill="#ADD1B2" rx="11" ry="11" style="stroke:#181818;stroke-width:1.0;"/><path d="M1216.5938,216.6719 C1215.6563,216.2344 1215.0625,216.0938 1214.1875,216.0938 C1211.5625,216.0938 1209.5625,218.1719 1209.5625,220.8906 L1209.5625,222.0156 C1209.5625,224.5938 1211.6719,226.4844 1214.5625,226.4844 C1215.7813,226.4844 1216.9375,226.1875 1217.6875,225.6406 C1218.2656,225.2344 1218.5938,224.7813 1218.5938,224.3906 C1218.5938,223.9375 1218.2031,223.5469 1217.7344,223.5469 C1217.5156,223.5469 1217.3125,223.625 1217.125,223.8125 C1216.6719,224.2969 1216.6719,224.2969 1216.4844,224.3906 C1216.0625,224.6563 1215.375,224.7813 1214.6094,224.7813 C1212.5625,224.7813 1211.2656,223.6875 1211.2656,221.9844 L1211.2656,220.8906 C1211.2656,219.1094 1212.5156,217.7969 1214.25,217.7969 C1214.8281,217.7969 1215.4375,217.9531 1215.9063,218.2031 C1216.3906,218.4844 1216.5625,218.7031 1216.6563,219.1094 C1216.7188,219.5156 1216.75,219.6406 1216.8906,219.7656 C1217.0313,219.9063 1217.2656,220.0156 1217.4844,220.0156 C1217.75,220.0156 1218.0156,219.875 1218.1875,219.6563 C1218.2969,219.5 1218.3281,219.3125 1218.3281,218.8906 L1218.3281,217.4688 C1218.3281,217.0313 1218.3125,216.9063 1218.2188,216.75 C1218.0625,216.4844 1217.7813,216.3438 1217.4844,216.3438 C1217.1875,216.3438 1216.9844,216.4375 1216.7656,216.75 L1216.5938,216.6719 Z " fill="#000000"/><text fill="#000000" font-family="sans-serif" font-size="14" lengthAdjust="spacing" textLength="111" x="1234.75" y="225.8467">HeightStrategy</text><line style="stroke:#181818;stroke-width:0.5;" x1="1109" x2="1439" y1="237" y2="237"/><line style="stroke:#181818;stroke-width:0.5;" x1="1109" x2="1439" y1="245" y2="245"/><ellipse cx="1119" cy="258.6484" fill="#84BE84" rx="3" ry="3" style="stroke:#038048;stroke-width:1.0;"/><text fill="#000000" font-family="sans-serif" font-size="14" lengthAdjust="spacing" textLength="306" x="1128" y="261.9951">customeSort(person : List&lt;Preson&gt;) : void</text></g><!--MD5=[09ce52be0ee7de43c61b6e2d59bf108b]
class Person--><g id="elem_Person"><rect codeLine="21" fill="#F1F1F1" height="243.5625" id="Person" rx="2.5" ry="2.5" style="stroke:#181818;stroke-width:0.5;" width="269" x="1475.5" y="115"/><ellipse cx="1581.25" cy="131" fill="#ADD1B2" rx="11" ry="11" style="stroke:#181818;stroke-width:1.0;"/><path d="M1583.5938,126.6719 C1582.6563,126.2344 1582.0625,126.0938 1581.1875,126.0938 C1578.5625,126.0938 1576.5625,128.1719 1576.5625,130.8906 L1576.5625,132.0156 C1576.5625,134.5938 1578.6719,136.4844 1581.5625,136.4844 C1582.7813,136.4844 1583.9375,136.1875 1584.6875,135.6406 C1585.2656,135.2344 1585.5938,134.7813 1585.5938,134.3906 C1585.5938,133.9375 1585.2031,133.5469 1584.7344,133.5469 C1584.5156,133.5469 1584.3125,133.625 1584.125,133.8125 C1583.6719,134.2969 1583.6719,134.2969 1583.4844,134.3906 C1583.0625,134.6563 1582.375,134.7813 1581.6094,134.7813 C1579.5625,134.7813 1578.2656,133.6875 1578.2656,131.9844 L1578.2656,130.8906 C1578.2656,129.1094 1579.5156,127.7969 1581.25,127.7969 C1581.8281,127.7969 1582.4375,127.9531 1582.9063,128.2031 C1583.3906,128.4844 1583.5625,128.7031 1583.6563,129.1094 C1583.7188,129.5156 1583.75,129.6406 1583.8906,129.7656 C1584.0313,129.9063 1584.2656,130.0156 1584.4844,130.0156 C1584.75,130.0156 1585.0156,129.875 1585.1875,129.6563 C1585.2969,129.5 1585.3281,129.3125 1585.3281,128.8906 L1585.3281,127.4688 C1585.3281,127.0313 1585.3125,126.9063 1585.2188,126.75 C1585.0625,126.4844 1584.7813,126.3438 1584.4844,126.3438 C1584.1875,126.3438 1583.9844,126.4375 1583.7656,126.75 L1583.5938,126.6719 Z " fill="#000000"/><text fill="#000000" font-family="sans-serif" font-size="14" lengthAdjust="spacing" textLength="49" x="1601.75" y="135.8467">Person</text><line style="stroke:#181818;stroke-width:0.5;" x1="1476.5" x2="1743.5" y1="147" y2="147"/><rect fill="none" height="6" style="stroke:#C82930;stroke-width:1.0;" width="6" x="1483.5" y="157.6484"/><text fill="#000000" font-family="sans-serif" font-size="14" lengthAdjust="spacing" textLength="97" x="1495.5" y="163.9951">name : String</text><rect fill="none" height="6" style="stroke:#C82930;stroke-width:1.0;" width="6" x="1483.5" y="173.9453"/><text fill="#000000" font-family="sans-serif" font-size="14" lengthAdjust="spacing" textLength="92" x="1495.5" y="180.292">age : Integer</text><rect fill="none" height="6" style="stroke:#C82930;stroke-width:1.0;" width="6" x="1483.5" y="190.2422"/><text fill="#000000" font-family="sans-serif" font-size="14" lengthAdjust="spacing" textLength="113" x="1495.5" y="196.5889">height : Integer</text><rect fill="none" height="6" style="stroke:#C82930;stroke-width:1.0;" width="6" x="1483.5" y="206.5391"/><text fill="#000000" font-family="sans-serif" font-size="14" lengthAdjust="spacing" textLength="115" x="1495.5" y="212.8857">weight : Integer</text><line style="stroke:#181818;stroke-width:0.5;" x1="1476.5" x2="1743.5" y1="220.1875" y2="220.1875"/><ellipse cx="1486.5" cy="233.8359" fill="#84BE84" rx="3" ry="3" style="stroke:#038048;stroke-width:1.0;"/><text fill="#000000" font-family="sans-serif" font-size="14" lengthAdjust="spacing" textLength="133" x="1495.5" y="237.1826">getName() : String</text><ellipse cx="1486.5" cy="250.1328" fill="#84BE84" rx="3" ry="3" style="stroke:#038048;stroke-width:1.0;"/><text fill="#000000" font-family="sans-serif" font-size="14" lengthAdjust="spacing" textLength="214" x="1495.5" y="253.4795">setName(name : String) : void</text><ellipse cx="1486.5" cy="266.4297" fill="#84BE84" rx="3" ry="3" style="stroke:#038048;stroke-width:1.0;"/><text fill="#000000" font-family="sans-serif" font-size="14" lengthAdjust="spacing" textLength="129" x="1495.5" y="269.7764">getAge() : Integer</text><ellipse cx="1486.5" cy="282.7266" fill="#84BE84" rx="3" ry="3" style="stroke:#038048;stroke-width:1.0;"/><text fill="#000000" font-family="sans-serif" font-size="14" lengthAdjust="spacing" textLength="196" x="1495.5" y="286.0732">setAge(age : Integer) : void</text><ellipse cx="1486.5" cy="299.0234" fill="#84BE84" rx="3" ry="3" style="stroke:#038048;stroke-width:1.0;"/><text fill="#000000" font-family="sans-serif" font-size="14" lengthAdjust="spacing" textLength="149" x="1495.5" y="302.3701">getHeight() : Integer</text><ellipse cx="1486.5" cy="315.3203" fill="#84BE84" rx="3" ry="3" style="stroke:#038048;stroke-width:1.0;"/><text fill="#000000" font-family="sans-serif" font-size="14" lengthAdjust="spacing" textLength="237" x="1495.5" y="318.667">setHeight(height : Integer) : void</text><ellipse cx="1486.5" cy="331.6172" fill="#84BE84" rx="3" ry="3" style="stroke:#038048;stroke-width:1.0;"/><text fill="#000000" font-family="sans-serif" font-size="14" lengthAdjust="spacing" textLength="153" x="1495.5" y="334.9639">getWeight() : Integer</text><ellipse cx="1486.5" cy="347.9141" fill="#84BE84" rx="3" ry="3" style="stroke:#038048;stroke-width:1.0;"/><text fill="#000000" font-family="sans-serif" font-size="14" lengthAdjust="spacing" textLength="243" x="1495.5" y="351.2607">setWeight(weight : Integer) : void</text></g><!--MD5=[84718776d214be480e4c259efcb737fc]
class Main--><g id="elem_Main"><rect codeLine="36" fill="#F1F1F1" height="48" id="Main" rx="2.5" ry="2.5" style="stroke:#181818;stroke-width:0.5;" width="65" x="874.5" y="7"/><ellipse cx="889.5" cy="23" fill="#ADD1B2" rx="11" ry="11" style="stroke:#181818;stroke-width:1.0;"/><path d="M891.8438,18.6719 C890.9063,18.2344 890.3125,18.0938 889.4375,18.0938 C886.8125,18.0938 884.8125,20.1719 884.8125,22.8906 L884.8125,24.0156 C884.8125,26.5938 886.9219,28.4844 889.8125,28.4844 C891.0313,28.4844 892.1875,28.1875 892.9375,27.6406 C893.5156,27.2344 893.8438,26.7813 893.8438,26.3906 C893.8438,25.9375 893.4531,25.5469 892.9844,25.5469 C892.7656,25.5469 892.5625,25.625 892.375,25.8125 C891.9219,26.2969 891.9219,26.2969 891.7344,26.3906 C891.3125,26.6563 890.625,26.7813 889.8594,26.7813 C887.8125,26.7813 886.5156,25.6875 886.5156,23.9844 L886.5156,22.8906 C886.5156,21.1094 887.7656,19.7969 889.5,19.7969 C890.0781,19.7969 890.6875,19.9531 891.1563,20.2031 C891.6406,20.4844 891.8125,20.7031 891.9063,21.1094 C891.9688,21.5156 892,21.6406 892.1406,21.7656 C892.2813,21.9063 892.5156,22.0156 892.7344,22.0156 C893,22.0156 893.2656,21.875 893.4375,21.6563 C893.5469,21.5 893.5781,21.3125 893.5781,20.8906 L893.5781,19.4688 C893.5781,19.0313 893.5625,18.9063 893.4688,18.75 C893.3125,18.4844 893.0313,18.3438 892.7344,18.3438 C892.4375,18.3438 892.2344,18.4375 892.0156,18.75 L891.8438,18.6719 Z " fill="#000000"/><text fill="#000000" font-family="sans-serif" font-size="14" lengthAdjust="spacing" textLength="33" x="903.5" y="27.8467">Main</text><line style="stroke:#181818;stroke-width:0.5;" x1="875.5" x2="938.5" y1="39" y2="39"/><line style="stroke:#181818;stroke-width:0.5;" x1="875.5" x2="938.5" y1="47" y2="47"/></g><!--MD5=[cf8fdaefc782a1097e8f7fd601adea66]
class People--><g id="elem_People"><rect codeLine="38" fill="#F1F1F1" height="113.1875" id="People" rx="2.5" ry="2.5" style="stroke:#181818;stroke-width:0.5;" width="395" x="1412.5" y="419"/><ellipse cx="1580.75" cy="435" fill="#ADD1B2" rx="11" ry="11" style="stroke:#181818;stroke-width:1.0;"/><path d="M1583.0938,430.6719 C1582.1563,430.2344 1581.5625,430.0938 1580.6875,430.0938 C1578.0625,430.0938 1576.0625,432.1719 1576.0625,434.8906 L1576.0625,436.0156 C1576.0625,438.5938 1578.1719,440.4844 1581.0625,440.4844 C1582.2813,440.4844 1583.4375,440.1875 1584.1875,439.6406 C1584.7656,439.2344 1585.0938,438.7813 1585.0938,438.3906 C1585.0938,437.9375 1584.7031,437.5469 1584.2344,437.5469 C1584.0156,437.5469 1583.8125,437.625 1583.625,437.8125 C1583.1719,438.2969 1583.1719,438.2969 1582.9844,438.3906 C1582.5625,438.6563 1581.875,438.7813 1581.1094,438.7813 C1579.0625,438.7813 1577.7656,437.6875 1577.7656,435.9844 L1577.7656,434.8906 C1577.7656,433.1094 1579.0156,431.7969 1580.75,431.7969 C1581.3281,431.7969 1581.9375,431.9531 1582.4063,432.2031 C1582.8906,432.4844 1583.0625,432.7031 1583.1563,433.1094 C1583.2188,433.5156 1583.25,433.6406 1583.3906,433.7656 C1583.5313,433.9063 1583.7656,434.0156 1583.9844,434.0156 C1584.25,434.0156 1584.5156,433.875 1584.6875,433.6563 C1584.7969,433.5 1584.8281,433.3125 1584.8281,432.8906 L1584.8281,431.4688 C1584.8281,431.0313 1584.8125,430.9063 1584.7188,430.75 C1584.5625,430.4844 1584.2813,430.3438 1583.9844,430.3438 C1583.6875,430.3438 1583.4844,430.4375 1583.2656,430.75 L1583.0938,430.6719 Z " fill="#000000"/><text fill="#000000" font-family="sans-serif" font-size="14" lengthAdjust="spacing" textLength="50" x="1601.25" y="439.8467">People</text><line style="stroke:#181818;stroke-width:0.5;" x1="1413.5" x2="1806.5" y1="451" y2="451"/><line style="stroke:#181818;stroke-width:0.5;" x1="1413.5" x2="1806.5" y1="459" y2="459"/><ellipse cx="1423.5" cy="472.6484" fill="#84BE84" rx="3" ry="3" style="stroke:#038048;stroke-width:1.0;"/><text fill="#000000" font-family="sans-serif" font-size="14" lengthAdjust="spacing" textLength="60" x="1432.5" y="475.9951">People()</text><ellipse cx="1423.5" cy="488.9453" fill="#84BE84" rx="3" ry="3" style="stroke:#038048;stroke-width:1.0;"/><text fill="#000000" font-family="sans-serif" font-size="14" lengthAdjust="spacing" textLength="369" x="1432.5" y="492.292">setSortStrategy(sortStrategy : SortStrategy) : void</text><ellipse cx="1423.5" cy="505.2422" fill="#84BE84" rx="3" ry="3" style="stroke:#038048;stroke-width:1.0;"/><text fill="#000000" font-family="sans-serif" font-size="14" lengthAdjust="spacing" textLength="211" x="1432.5" y="508.5889">addMember(p : Person) : void</text><ellipse cx="1423.5" cy="521.5391" fill="#84BE84" rx="3" ry="3" style="stroke:#038048;stroke-width:1.0;"/><text fill="#000000" font-family="sans-serif" font-size="14" lengthAdjust="spacing" textLength="214" x="1432.5" y="524.8857">print(out : PrintStream) : void</text></g><!--MD5=[4a78384b8f70e03722c86f8817e2c65a]
link HeightStrategy to SortStrategy--><g id="link_HeightStrategy_SortStrategy"><path codeLine="44" d="M1227.27,269.077 C1190.17,293.663 1136.92,328.767 1090,359 C1051.81,383.605 1008.87,410.736 974.184,432.5162 " fill="none" id="HeightStrategy-to-SortStrategy" style="stroke:#181818;stroke-width:1.0;stroke-dasharray:7.0,7.0;"/><polygon fill="none" points="977.531,438.68,956.869,443.3764,970.093,426.82,977.531,438.68" style="stroke:#181818;stroke-width:1.0;"/></g><!--MD5=[998aec20cbe95cf51f0e538979ea1cb4]
link AgeSortStrategy to SortStrategy--><g id="link_AgeSortStrategy_SortStrategy"><path codeLine="45" d="M907,269.405 C907,308.652 907,376.343 907,423.167 " fill="none" id="AgeSortStrategy-to-SortStrategy" style="stroke:#181818;stroke-width:1.0;stroke-dasharray:7.0,7.0;"/><polygon fill="none" points="914,423.341,907,443.3414,900,423.341,914,423.341" style="stroke:#181818;stroke-width:1.0;"/></g><!--MD5=[013f926e10a2ebbc39a3eb4766e4ac0e]
link WeightStrategy to SortStrategy--><g id="link_WeightStrategy_SortStrategy"><path codeLine="46" d="M586.435,269.14 C623.307,293.76 676.255,328.881 723,359 C761.338,383.703 804.512,410.838 839.398,432.5973 " fill="none" id="WeightStrategy-to-SortStrategy" style="stroke:#181818;stroke-width:1.0;stroke-dasharray:7.0,7.0;"/><polygon fill="none" points="843.54,426.93,856.817,443.4443,836.139,438.8142,843.54,426.93" style="stroke:#181818;stroke-width:1.0;"/></g><!--MD5=[d72bb40882a93b0f236f19445fb79bc0]
link NameSortStrategy to SortStrategy--><g id="link_NameSortStrategy_SortStrategy"><path codeLine="47" d="M210.538,269.022 C245.925,296.699 301.519,336.26 356,359 C472.435,407.6 611.55,436.5555 720.865,453.3199 " fill="none" id="NameSortStrategy-to-SortStrategy" style="stroke:#181818;stroke-width:1.0;stroke-dasharray:7.0,7.0;"/><polygon fill="none" points="722.169,446.4368,740.918,456.3103,720.104,460.2837,722.169,446.4368" style="stroke:#181818;stroke-width:1.0;"/></g><!--MD5=[b1f68fe4e5d8d94051a83650f923b3ef]
link Person to SortStrategy--><g id="link_Person_SortStrategy"><path codeLine="48" d="M1464.6934,355.2063 C1464.6934,355.2063 1459.2,357.967 1457,359 C1340.03,413.79 1196.96,442.8004 1086.06,458.0417 " fill="none" id="Person-SortStrategy" style="stroke:#181818;stroke-width:1.0;"/><polygon fill="none" points="1475.29,349.575,1468.1146,348.8584,1464.6934,355.2063,1471.8688,355.9229,1475.29,349.575" style="stroke:#181818;stroke-width:1.0;"/><polygon fill="#181818" points="1073.04,459.7881,1082.492,462.5559,1077.9956,459.1233,1081.4282,454.6269,1073.04,459.7881" style="stroke:#181818;stroke-width:1.0;"/><line style="stroke:#181818;stroke-width:1.0;" x1="1077.9956" x2="1085.925" y1="459.1233" y2="458.0595"/></g><!--MD5=[5bfaee343906c8867774b4afae1ac6de]
link Main to Person--><g id="link_Main_Person"><path codeLine="49" d="M939.582,31.212 C1027.2,30.268 1273.63,35.42 1457,115 C1461.66,117.022 1466.3,119.223 1470.9,121.574 " fill="none" id="Main-to-Person" style="stroke:#181818;stroke-width:1.0;stroke-dasharray:7.0,7.0;"/><polygon fill="#181818" points="1475.5,123.975,1469.3936,116.2477,1471.0739,121.6492,1465.6723,123.3295,1475.5,123.975" style="stroke:#181818;stroke-width:1.0;"/></g><!--MD5=[8dbcf40d16dd65a67163ce7801d29387]
link Main to HeightStrategy--><g id="link_Main_HeightStrategy"><path codeLine="50" d="M939.81,45.06 C977.021,60.285 1039.13,86.961 1090,115 C1138.1,141.513 1190.16,176.374 1226.59,201.864 " fill="none" id="Main-to-HeightStrategy" style="stroke:#181818;stroke-width:1.0;stroke-dasharray:7.0,7.0;"/><polygon fill="#181818" points="1230.95,204.925,1225.8783,196.4824,1226.8564,202.054,1221.2847,203.0322,1230.95,204.925" style="stroke:#181818;stroke-width:1.0;"/></g><!--MD5=[f1b49bbc0d4bc9ad052e23595b8a91ac]
link Main to AgeSortStrategy--><g id="link_Main_AgeSortStrategy"><path codeLine="51" d="M907,55.005 C907,90.179 907,157.647 907,199.537 " fill="none" id="Main-to-AgeSortStrategy" style="stroke:#181818;stroke-width:1.0;stroke-dasharray:7.0,7.0;"/><polygon fill="#181818" points="907,204.767,911,195.767,907,199.767,903,195.767,907,204.767" style="stroke:#181818;stroke-width:1.0;"/></g><!--MD5=[fbdba8233a6398946ce27db98ac4ba6e]
link Main to WeightStrategy--><g id="link_Main_WeightStrategy"><path codeLine="52" d="M874.328,44.872 C836.934,60.028 774.247,86.738 723,115 C675.086,141.424 623.319,176.296 587.112,201.813 " fill="none" id="Main-to-WeightStrategy" style="stroke:#181818;stroke-width:1.0;stroke-dasharray:7.0,7.0;"/><polygon fill="#181818" points="582.775,204.877,592.4336,202.9505,586.8586,201.9918,587.8173,196.4168,582.775,204.877" style="stroke:#181818;stroke-width:1.0;"/></g><!--MD5=[139662021ec7bcf07c08904ad790417f]
link Main to NameSortStrategy--><g id="link_Main_NameSortStrategy"><path codeLine="53" d="M874.397,32.068 C787.223,33.26 542.699,43.26 356,115 C302.703,135.48 249.075,173.465 213.779,201.432 " fill="none" id="Main-to-NameSortStrategy" style="stroke:#181818;stroke-width:1.0;stroke-dasharray:7.0,7.0;"/><polygon fill="#181818" points="209.566,204.791,219.0968,202.3084,213.4756,201.6741,214.1099,196.053,209.566,204.791" style="stroke:#181818;stroke-width:1.0;"/></g><!--MD5=[08a17b6abc15675cb5ac129c40f1f6ed]
link Person to People--><g id="link_Person_People"><path codeLine="54" d="M1610,359.021 C1610,377.972 1610,396.827 1610,413.64 " fill="none" id="Person-to-People" style="stroke:#181818;stroke-width:1.0;stroke-dasharray:7.0,7.0;"/><polygon fill="#181818" points="1610,418.79,1614,409.79,1610,413.79,1606,409.79,1610,418.79" style="stroke:#181818;stroke-width:1.0;"/></g><!--MD5=[f214bea85181157541540e82369dcb38]
@startuml
interface SortStrategy{
    + customeSort(person : List<Person>) : void
  }
    
  class NameSortStrategy{
    + customeSort(person : List<Person>) : void
  }
  
  class WeightStrategy{
    + customeSort(person : List<Person>) : void
  }
  
  class AgeSortStrategy{
    + customeSort(person : List<Person>) : void
  }
  
  class HeightStrategy{
    + customeSort(person : List<Preson>) : void
  }
  
  class Person{
    - name : String
    - age : Integer
    - height : Integer
    - weight : Integer
    + getName() : String
    + setName(name : String) : void
    + getAge() : Integer
    + setAge(age : Integer) : void
    + getHeight() : Integer
    + setHeight(height : Integer) : void
    + getWeight() : Integer
    + setWeight(weight : Integer) : void
  }
  
  class Main{
  }
  class People{
    + People()
    + setSortStrategy(sortStrategy : SortStrategy) : void
    + addMember(p : Person) : void
    + print(out : PrintStream) : void
  }
  HeightStrategy ..|> SortStrategy
  AgeSortStrategy ..|> SortStrategy
  WeightStrategy ..|> SortStrategy
  NameSortStrategy ..|> SortStrategy
  Person o- -> SortStrategy
  Main ..> Person
  Main ..> HeightStrategy
  Main ..> AgeSortStrategy
  Main ..> WeightStrategy
  Main ..> NameSortStrategy
  Person ..> People
@enduml

PlantUML version 1.2022.13beta7(Unknown compile time)
(GPL source distribution)
Java Runtime: Java(TM) SE Runtime Environment
JVM: Java HotSpot(TM) 64-Bit Server VM
Default Encoding: UTF-8
Language: en
Country: US
--></g></svg>